<?xml version="1.0" encoding="utf-8"?>
<!-- Generator: Adobe Illustrator 16.0.4, SVG Export Plug-In . SVG Version: 6.00 Build 0)  -->
<!DOCTYPE svg PUBLIC "-//W3C//DTD SVG 1.1//EN" "http://www.w3.org/Graphics/SVG/1.1/DTD/svg11.dtd">
<svg version="1.1" xmlns="http://www.w3.org/2000/svg" xmlns:xlink="http://www.w3.org/1999/xlink" x="0px" y="0px" width="550px"
	 height="900px" viewBox="0 0 550 900" enable-background="new 0 0 550 900" xml:space="preserve">
<g id="Background" display="none">
	<rect x="-0.5" y="-0.444" display="inline" fill="#014983" width="550" height="900"/>
</g>
<g id="Icon">
	<g>
		<path fill="#FFFFFF" d="M214.197,692.611c-9.986,0-17.093,2.828-20.837,8.48c-3.745,5.654-5.859,14.207-5.859,25.662v85.686
			c0,11.602,2.132,20.375,5.914,26.322c3.781,5.947,10.75,8.92,20.662,8.92c9.913,0,16.864-2.973,20.646-8.92
			c3.781-5.947,5.778-14.721,5.778-26.322v-85.686c0-11.455-1.917-20.008-5.662-25.662
			C231.093,695.439,224.182,692.611,214.197,692.611z"/>
		<path fill="#FFFFFF" d="M466.078,692.611c-9.986,0-17.034,2.828-20.778,8.48c-3.744,5.654-5.8,14.207-5.8,25.662v85.686
			c0,11.602,2.073,20.375,5.854,26.322s10.72,8.92,20.632,8.92s16.908-2.973,20.691-8.92c3.779-5.947,5.822-14.721,5.822-26.322
			v-85.686c0-11.455-1.978-20.008-5.722-25.662C483.034,695.439,476.062,692.611,466.078,692.611z"/>
		<path fill="#FFFFFF" d="M549.624,639.888L369.5,550V449.556l-30-30V300l-19.75-20L275.02,0.222L229.688,280L209.5,300v120
			l-30,29.556V550L-0.112,639.888l0.396,259.668H550L549.624,639.888z M140.5,868.556h-21.13l-7.049-21.011
			c-5.507,15.42-14.906,23.196-28.195,23.196c-9.031,0-16.87-1.251-23.514-3.819c-6.646-2.57-12.06-6.041-16.245-10.445
			c-4.185-4.406-7.527-10.016-10.022-16.844c-2.497-6.828-4.342-14.019-5.295-21.581c-0.955-7.562-1.55-16.26-1.55-26.1v-50.002
			c0-48.311,19.282-72.469,57.609-72.469c9.177,0,17.203,1.377,23.959,4.131c6.754,2.752,12.254,6.773,16.439,12.059
			c4.186,5.287,7.356,11.475,9.487,18.559c2.129,7.086,3.384,15.117,3.752,24.441c0.072,1.322,0.118,3.885,0.118,5.885H110.5v-5.602
			c0-4.625-0.229-8.607-0.631-11.949c-0.404-3.34-1.097-6.625-2.161-9.857c-1.065-3.229-2.495-5.854-4.329-7.875
			c-1.836-2.018-4.268-3.633-7.313-4.846c-3.048-1.211-6.658-1.816-10.843-1.816c-5.727,0-10.553,1.047-14.48,3.139
			c-3.929,2.092-6.938,5.141-9.03,9.141c-2.092,4.004-3.794,8.408-4.676,13.217c-0.881,4.811-1.537,10.408-1.537,16.797v63.438
			c0,4.699,0.362,8.939,0.656,12.721c0.293,3.783,0.896,7.637,1.595,11.564c0.697,3.928,1.778,7.324,3.137,10.188
			c1.358,2.863,3.074,5.451,5.094,7.764c2.019,2.314,4.565,4.076,7.613,5.287c3.046,1.211,6.56,1.816,10.524,1.816
			c4.698,0,8.777-0.916,12.229-2.752c3.451-1.836,6.187-4.203,8.207-7.104c2.019-2.9,3.616-6.59,4.792-11.07
			c1.174-4.477,2.054-8.92,2.458-13.326c0.402-4.404,0.695-9.434,0.695-15.088v-6.785h-28v-21h56V868.556z M268.5,805.39
			c0,10.207-0.923,19.219-2.866,27.037c-1.946,7.82-4.985,14.648-9.17,20.486s-9.809,10.281-16.893,13.326
			c-7.087,3.047-15.542,4.57-25.38,4.57c-9.912,0-18.409-1.506-25.493-4.516c-7.087-3.01-12.719-7.414-16.904-13.215
			c-4.185-5.801-7.377-12.611-9.286-20.432c-1.91-7.818-3.007-16.906-3.007-27.258v-71.588c0-10.354,1.098-19.385,3.008-27.094
			c1.909-7.709,5.029-14.41,9.213-20.1c4.186-5.689,9.856-9.969,16.943-12.832c7.084-2.863,15.602-4.295,25.514-4.295
			c19.236,0,33.07,5.508,41.588,16.521c8.516,11.014,12.733,26.945,12.733,47.799V805.39z M367.947,718.658
			c-0.219-2.754-0.679-5.598-1.267-8.535c-0.588-2.936-1.479-5.379-2.616-7.324c-1.139-1.945-2.584-3.744-4.309-5.396
			c-1.727-1.652-3.917-2.863-6.56-3.635c-2.645-0.771-5.731-1.156-9.255-1.156c-4.555,0-8.465,0.734-11.732,2.203
			s-5.821,3.359-7.655,5.672c-1.836,2.312-3.249,5.416-4.241,9.307c-0.99,3.893-1.857,7.691-2.15,11.398
			c-0.293,3.709-0.662,8.279-0.662,13.713v70.486c0,4.699,0.424,8.959,0.828,12.775c0.402,3.818,1.305,7.619,2.479,11.398
			c1.174,3.783,2.755,6.959,4.628,9.527c1.871,2.57,4.396,4.645,7.517,6.223c3.119,1.58,6.787,2.367,10.973,2.367
			s7.788-0.807,10.8-2.422c3.01-1.615,5.38-3.67,7.106-6.168c1.725-2.496,3.086-5.689,4.078-9.582
			c0.99-3.891,1.745-7.672,2.038-11.344c0.293-3.67,0.554-7.93,0.554-12.775v-6.834h28v6.834c0,10.207-0.914,19.164-2.713,26.873
			c-1.801,7.709-4.706,14.521-8.708,20.43c-4.002,5.912-9.438,10.408-16.302,13.492c-6.867,3.084-15.146,4.625-24.838,4.625
			c-8.299,0-15.604-1.176-21.919-3.523c-6.314-2.35-11.493-5.598-15.53-9.748c-4.039-4.146-7.324-9.322-9.857-15.529
			c-2.531-6.203-4.438-12.83-5.465-19.879c-1.029-7.049-1.668-15.014-1.668-23.898v-56.281c0-8.883,0.639-16.85,1.668-23.898
			c1.027-7.049,2.871-13.674,5.402-19.879c2.533-6.205,5.85-11.361,9.889-15.475c4.037-4.111,9.23-7.342,15.545-9.691
			s13.627-3.525,21.926-3.525c9.178,0,17.111,1.359,23.793,4.076c6.68,2.717,12.023,6.717,16.027,12.004
			c4,5.287,7.011,11.418,9.032,18.393c2.018,6.977,3.212,14.953,3.579,24.277c0.072,1.395,0.111,3.324,0.111,6.324H368.5v-5.932
			C368.5,724.734,368.168,721.412,367.947,718.658z M520.5,805.39c0,10.207-0.981,19.219-2.927,27.037
			c-1.945,7.82-5.015,14.648-9.198,20.486c-4.186,5.838-9.824,10.281-16.908,13.326c-7.086,3.047-15.55,4.57-25.388,4.57
			c-9.912,0-18.413-1.506-25.497-4.516c-7.086-3.01-12.721-7.414-16.906-13.215s-7.318-12.611-9.227-20.432
			c-1.91-7.818-2.949-16.906-2.949-27.258v-71.588c0-10.354,1.039-19.385,2.949-27.094c1.908-7.709,4.998-14.41,9.184-20.1
			s9.842-9.969,16.928-12.832c7.084-2.863,15.595-4.295,25.507-4.295c19.236,0,33.126,5.508,41.644,16.521
			s12.789,26.945,12.789,47.799V805.39z"/>
	</g>
</g>
<g id="Text">
</g>
<g id="Guides" display="none">
</g>
</svg>
