<?xml version="1.0" encoding="utf-8"?>
<!-- Generator: Adobe Illustrator 16.0.4, SVG Export Plug-In . SVG Version: 6.00 Build 0)  -->
<!DOCTYPE svg PUBLIC "-//W3C//DTD SVG 1.1//EN" "http://www.w3.org/Graphics/SVG/1.1/DTD/svg11.dtd">
<svg version="1.1" id="Layer_1" xmlns="http://www.w3.org/2000/svg" xmlns:xlink="http://www.w3.org/1999/xlink" x="0px" y="0px"
	 width="100px" height="100px" viewBox="0 0 100 100" enable-background="new 0 0 100 100" xml:space="preserve">
<path fill="#FFFFFF" d="M97.627,87.955L55.894,49.577c1.074-0.779,2.321-1.21,3.591-1.262c1.674-0.068,3.349-0.656,4.629-1.936
	l19.218-19.218c0,0,18.61-17.764,11.958-24.418c-1.715-1.714-4.496-1.712-6.211,0.003L48.783,43.038l-2.815-2.589
	c-1.421-1.42-2.37-3.135-2.861-4.942l-1.837-7.985l-0.003-0.002c-0.454-1.984-1.45-3.871-2.995-5.416
	c-0.352-0.353-0.724-0.673-1.1-0.971L12.241,0.329c-0.383-0.311-0.948-0.29-1.306,0.067c-0.382,0.383-0.381,0.999,0.001,1.382
	l21.545,21.203c0.526,0.526,0.525,1.378,0,1.904c-0.525,0.524-1.377,0.525-1.904,0L8.858,3.857C8.475,3.474,7.855,3.476,7.473,3.859
	c-0.381,0.382-0.382,1,0.001,1.383l21.374,21.373c0.526,0.526,0.525,1.378,0,1.904c-0.526,0.526-1.378,0.526-1.904,0L5.57,7.145
	C5.187,6.762,4.569,6.763,4.185,7.146C3.803,7.527,3.803,8.145,4.186,8.528l21.028,21.721c0.526,0.526,0.526,1.377,0,1.903
	c-0.525,0.525-1.377,0.526-1.904,0L2.108,10.607c-0.383-0.383-1.002-0.381-1.385,0.001c-0.356,0.356-0.377,0.921-0.067,1.305
	l20.807,24.928c0.293,0.382,0.617,0.752,0.968,1.104c1.545,1.544,3.431,2.541,5.416,2.994l0.003,0.003l7.983,1.839
	c1.81,0.487,3.518,1.445,4.938,2.865l2.589,2.815L5.211,86.607c-2.58,2.58-2.582,6.765,0,9.346c2.581,2.581,6.764,2.579,9.343,0
	l35.582-40.126L88.283,97.3c2.58,2.581,6.764,2.581,9.345,0C100.206,94.721,100.207,90.536,97.627,87.955z"/>
</svg>
